<svg width="580" height="400" xmlns="http://www.w3.org/2000/svg">
 <!-- Created with SVG Editor - http://github.com/mzalive/SVG Editor/ -->

 <g>
  <title>background</title>
  <rect fill="#fff" id="canvas_background" height="402" width="582" y="-1" x="-1"/>
  <g display="none" overflow="visible" y="0" x="0" height="100%" width="100%" id="canvasGrid">
   <rect fill="url(#gridpattern)" stroke-width="0" y="0" x="0" height="100%" width="100%"/>
  </g>
 </g>
 <g>
  <title>Layer 1</title>
  <g id="svg_5">
   <path id="svg_4" d="m312.19706,229.643789l-3.824869,6.673177l-1.24783,21.755641c0,2.414279 -7.676866,4.367404 -17.116969,4.367404s-17.116969,-1.953125 -17.116969,-4.367404l-1.573351,-21.538627l-4.041883,-6.89019c11.176214,4.692925 34.179685,4.530165 44.921872,0zm-53.168399,-68.712017l3.689236,34.044051c1.600477,-5.425347 5.642361,-12.749565 10.850694,-14.973957c1.708984,-0.732422 3.445095,-0.732422 5.072699,0.244141c1.41059,0.813802 2.604166,2.522786 2.7398,3.200955c0.325521,1.763238 -0.542535,2.468533 -1.220703,2.468533c-0.813802,0 -1.437717,-1.24783 -1.844618,-1.980252c-1.112196,-1.980252 -2.794054,-2.061632 -4.584418,-0.759549c-1.871745,1.356337 -3.499349,3.634982 -4.638672,5.615234c-1.383463,2.387153 -2.549913,5.018446 -3.255208,7.649739c-0.406901,1.519097 -0.786675,3.960503 -0.16276,5.39822c0.271267,0.596788 0.678168,0.976562 1.32921,0.976562c1.356337,0 3.336588,-1.790364 4.286024,-2.7398c1.220703,-1.220703 2.794054,-3.119574 3.390842,-4.340277l1.41059,-4.204644c0.705295,-1.844618 2.685547,-1.519097 2.685547,0c0,2.766927 -1.003689,3.689236 -2.712673,9.412977c-1.573351,5.289713 -2.061632,6.998697 -2.061632,6.998697c-0.189887,0.759549 -0.922309,2.034505 -1.708984,2.034505c-0.325521,0 -0.569661,-0.108507 -0.705295,-0.325521c-0.271267,-0.379774 -0.244141,-1.437717 -0.217014,-1.708984c0.054253,-0.868055 1.708984,-6.022135 1.980252,-6.835937c-0.542535,0.596788 -1.112196,1.193576 -1.736111,1.790364c-1.464844,1.383463 -3.824869,3.200955 -5.832248,3.200955c-0.922309,0 -1.519097,-0.244141 -2.088759,-0.651042l2.061632,21.59288c0.542535,1.356337 10.63368,4.638672 23.925779,4.638672c13.319226,0 23.410371,-3.309462 23.925779,-4.638672l2.956814,-25.66189c-1.546224,1.41059 -3.336588,3.146701 -5.31684,4.014757c-1.464844,0.623915 -4.720052,1.030816 -4.720052,-1.546224c0,-1.41059 2.468533,-4.014757 3.90625,-5.832248c0.379774,-0.461154 1.274956,-1.600477 1.274956,-2.197265c0,-0.786675 -1.627604,-0.596788 -3.173828,0.678168c-0.868055,0.732422 -1.681858,1.708984 -2.360026,2.631293c-1.16645,1.627604 -1.790364,3.038194 -2.305772,4.204644c-1.681858,3.851996 -1.112196,2.332899 -2.468533,5.967881c-1.356337,3.607856 -1.139323,3.200955 -1.41059,3.797743c-0.244141,0.515408 -0.596788,0.949436 -1.085069,1.220703c-0.515408,0.271267 -1.220703,0.244141 -1.654731,-0.08138c-0.244141,-0.16276 -0.352648,-0.515408 -0.352648,-1.003689c0,-0.244141 0.027127,-0.488281 0.08138,-0.732422c0.406901,-1.654731 2.115885,-4.909939 4.06901,-9.30447c0.434028,-1.003689 0.271267,-0.705295 0.217014,-0.623915c-1.681858,1.627604 -2.956814,2.414279 -3.90625,2.848307c-1.573351,0.705295 -3.526475,0.705295 -3.933376,-1.112196c-0.027127,-0.108507 -0.027127,-0.217014 -0.054253,-0.325521c-3.200955,2.49566 -6.591796,3.173828 -5.425347,-2.197265c-1.24783,2.224392 -3.417968,4.041883 -6.076388,4.041883c-1.112196,0 -1.925998,-0.379774 -2.332899,-1.383463c-0.623915,-1.49197 0.352648,-4.041883 1.24783,-6.456163c0.461154,-1.220703 1.085069,-2.685547 1.925998,-4.394531c0.434028,-0.922309 1.139323,-1.464844 2.061632,-1.220703c0.16276,0.054253 0.298394,0.108507 0.434028,0.189887c0.705295,0.488281 0.434028,1.220703 0.08138,1.953125c-1.030816,2.034505 -1.925998,3.526475 -2.522786,5.642361c-0.244141,0.895182 -0.542535,2.441406 0.406901,2.441406c0.651042,0 1.274956,-0.217014 1.871745,-0.651042c1.24783,-0.922309 2.251519,-2.305772 3.011067,-3.662109c0.542535,-0.976562 1.193576,-2.251519 1.519097,-3.336588c0.135634,-0.461154 0.298394,-0.895182 0.488281,-1.302083c0.298394,-0.678168 0.705295,-1.383463 1.41059,-1.383463c0.352648,0 0.651042,0.135634 0.868055,0.406901c0.461154,0.596788 0.352648,1.220703 0.108507,1.871745c-0.542535,1.519097 -1.274956,2.875434 -1.871745,4.530165c-0.352648,0.949436 -0.732422,2.170139 -0.732422,3.173828c0,0.922309 1.003689,0.705295 1.844618,0.325521c0.651042,-0.298394 1.302083,-0.759549 1.844618,-1.220703c0.325521,-1.32921 0.244141,-1.030816 7.161458,-18.500433c0.352648,-0.895182 1.003689,-1.274956 1.654731,-1.274956c0.325521,0 0.596788,0.108507 0.868055,0.298394c0.461154,0.352648 0.461154,1.112196 0.271267,1.681858c-0.189887,0.515408 -0.16276,0.352648 -1.220703,2.848307c-1.41059,3.282335 -2.332899,5.642361 -3.580729,8.653428c-0.515408,1.24783 -2.088759,5.126953 -2.360026,6.049262c-0.16276,0.596788 -0.352648,1.573351 0.271267,1.573351c1.464844,0 5.23546,-3.553602 6.266276,-4.611545c0.054253,-0.08138 0.135634,-0.108507 0.244141,-0.16276c0.16276,-0.515408 0.325521,-1.003689 0.461154,-1.49197c0.379774,-1.030816 0.732422,-2.224392 1.437717,-3.065321c0.217014,-0.271267 0.461154,-0.434028 0.732422,-0.434028c0.759549,0 1.139323,0.325521 1.139323,1.085069c0,0.298394 -0.189887,1.383463 -0.298394,1.681858c0.379774,-0.406901 0.786675,-0.813802 1.220703,-1.220703c4.06901,-3.770616 6.971571,-1.844618 6.971571,0.054253c0,2.007378 -2.414279,4.801432 -3.743489,6.347656c-0.434028,0.515408 -1.32921,1.464844 -1.356337,1.736111c0,0.352648 0.244141,0.488281 0.596788,0.488281c0.542535,0 1.736111,-0.949436 2.170139,-1.274956c1.356337,-1.057943 3.200955,-2.685547 4.503038,-3.824869l4.014757,-37.109372c-8.273654,4.638672 -53.602426,4.665798 -61.930334,0.054253zm62.310108,-2.305772c0,5.696614 -62.717009,5.696614 -62.717009,0c0,-2.387153 14.051648,-4.313151 31.358505,-4.313151c2.441406,0 4.828559,0.027127 7.134331,0.108507l3.417968,-13.210719l16.628688,-17.496743c0.379774,-0.379774 1.573351,-0.054253 2.685547,0.949436s1.790364,2.143012 1.437717,2.522786l-0.027127,0.027127l-15.543619,16.411674l-2.712673,11.040581c10.823567,0.705295 18.337672,2.197265 18.337672,3.960503zm-18.825953,1.24783c0,-0.217014 -0.244141,-0.406901 -0.678168,-0.569661l-0.054253,0.217014c0,0.352648 -1.356337,0.651042 -3.011067,0.651042s-3.011067,-0.298394 -3.011067,-0.651042c0,-0.027127 0,-0.054253 0.027127,-0.08138l0.054253,-0.189887c-0.488281,0.16276 -0.813802,0.379774 -0.813802,0.623915c0,0.569661 1.681858,1.003689 3.716363,1.003689c2.088759,0.027127 3.770616,-0.434028 3.770616,-1.003689z" fill="#ffaad4"/>
  </g>
 </g>
</svg>